<?xml version="1.0" encoding="UTF-8"?>
<svg xmlns="http://www.w3.org/2000/svg" xmlns:xlink="http://www.w3.org/1999/xlink" width="100px" height="75px" viewBox="0 0 100 75" version="1.1">
<g id="surface1">
<path style=" stroke:none;fill-rule:nonzero;fill:rgb(80.392157%,40.392157%,60%);fill-opacity:1;" d="M 86.054688 43.105469 C 82.566406 43.121094 79.535156 43.960938 77 45.203125 C 76.066406 43.359375 75.136719 41.71875 74.972656 40.511719 C 74.789062 39.105469 74.570312 38.25 74.789062 36.570312 C 75.007812 34.890625 75.996094 32.5 75.976562 32.316406 C 75.957031 32.132812 75.757812 31.273438 73.75 31.257812 C 71.742188 31.238281 70.007812 31.640625 69.804688 32.167969 C 69.605469 32.699219 69.222656 33.902344 68.964844 35.144531 C 68.621094 36.96875 64.949219 43.488281 62.851562 46.902344 C 62.175781 45.570312 61.59375 44.398438 61.464844 43.46875 C 61.28125 42.0625 61.0625 41.207031 61.28125 39.527344 C 61.5 37.847656 62.484375 35.457031 62.46875 35.273438 C 62.449219 35.089844 62.25 34.230469 60.242188 34.214844 C 58.234375 34.195312 56.5 34.597656 56.296875 35.125 C 56.097656 35.65625 55.878906 36.898438 55.457031 38.101562 C 55.039062 39.308594 50.164062 50.1875 48.886719 53 C 48.230469 54.441406 47.664062 55.589844 47.261719 56.375 C 47.261719 56.375 47.242188 56.429688 47.1875 56.523438 C 46.84375 57.195312 46.640625 57.5625 46.640625 57.5625 C 46.640625 57.5625 46.640625 57.5625 46.640625 57.582031 C 46.367188 58.074219 46.074219 58.53125 45.929688 58.53125 C 45.820312 58.53125 45.617188 57.214844 45.964844 55.425781 C 46.695312 51.648438 48.429688 45.769531 48.410156 45.570312 C 48.410156 45.460938 48.742188 44.4375 47.28125 43.90625 C 45.855469 43.378906 45.34375 44.253906 45.21875 44.253906 C 45.089844 44.253906 45 44.566406 45 44.566406 C 45 44.566406 46.585938 37.957031 41.96875 37.957031 C 39.082031 37.957031 35.105469 41.113281 33.132812 43.960938 C 31.890625 44.636719 29.246094 46.078125 26.414062 47.632812 C 25.335938 48.234375 24.222656 48.835938 23.183594 49.402344 C 23.109375 49.328125 23.039062 49.238281 22.964844 49.164062 C 17.378906 43.195312 7.046875 38.980469 7.484375 30.964844 C 7.648438 28.042969 8.652344 20.378906 27.328125 11.066406 C 42.699219 3.492188 54.929688 5.589844 57.046875 10.246094 C 60.078125 16.890625 50.492188 29.230469 34.609375 31.019531 C 28.550781 31.695312 25.375 29.359375 24.570312 28.480469 C 23.730469 27.570312 23.601562 27.515625 23.292969 27.695312 C 22.78125 27.972656 23.109375 28.792969 23.292969 29.265625 C 23.769531 30.507812 25.722656 32.699219 29.023438 33.777344 C 31.945312 34.726562 39.046875 35.253906 47.644531 31.933594 C 57.265625 28.207031 64.785156 17.859375 62.578125 9.1875 C 60.367188 0.386719 45.765625 -2.515625 31.945312 2.394531 C 23.730469 5.316406 14.824219 9.917969 8.414062 15.90625 C 0.804688 23.023438 -0.402344 29.210938 0.0898438 31.804688 C 1.863281 41.003906 14.550781 46.992188 19.625 51.429688 C 19.367188 51.574219 19.132812 51.703125 18.929688 51.8125 C 16.394531 53.070312 6.71875 58.128906 4.308594 63.476562 C 1.570312 69.539062 4.746094 73.882812 6.84375 74.464844 C 13.363281 76.273438 20.0625 73.023438 23.660156 67.65625 C 27.253906 62.289062 26.816406 55.316406 25.15625 52.121094 C 25.136719 52.085938 25.117188 52.050781 25.082031 52.011719 C 25.738281 51.628906 26.414062 51.226562 27.070312 50.84375 C 28.367188 50.078125 29.644531 49.367188 30.742188 48.78125 C 30.121094 50.480469 29.664062 52.503906 29.445312 55.425781 C 29.171875 58.859375 30.578125 63.3125 32.421875 65.066406 C 33.242188 65.832031 34.210938 65.851562 34.832031 65.851562 C 36.984375 65.851562 37.953125 64.0625 39.027344 61.941406 C 40.34375 59.351562 41.53125 56.339844 41.53125 56.339844 C 41.53125 56.339844 40.050781 64.480469 44.066406 64.480469 C 45.527344 64.480469 47.007812 62.582031 47.664062 61.613281 C 47.664062 61.632812 47.664062 61.632812 47.664062 61.632812 C 47.664062 61.632812 47.699219 61.578125 47.773438 61.449219 C 47.917969 61.214844 48.011719 61.066406 48.011719 61.066406 C 48.011719 61.066406 48.011719 61.046875 48.011719 61.03125 C 48.59375 60.007812 49.910156 57.691406 51.863281 53.839844 C 54.382812 48.871094 56.808594 42.667969 56.808594 42.667969 C 56.808594 42.667969 57.027344 44.179688 57.777344 46.699219 C 58.214844 48.179688 59.128906 49.804688 59.859375 51.375 C 59.273438 52.195312 58.910156 52.652344 58.910156 52.652344 C 58.910156 52.652344 58.910156 52.652344 58.925781 52.667969 C 58.453125 53.289062 57.941406 53.964844 57.375 54.621094 C 55.386719 56.996094 53.011719 59.714844 52.683594 60.5 C 52.300781 61.433594 52.390625 62.109375 53.121094 62.65625 C 53.652344 63.058594 54.601562 63.113281 55.566406 63.058594 C 57.355469 62.929688 58.617188 62.492188 59.238281 62.21875 C 60.203125 61.871094 61.335938 61.339844 62.394531 60.554688 C 64.347656 59.113281 65.535156 57.050781 65.425781 54.332031 C 65.371094 52.835938 64.878906 51.335938 64.273438 49.929688 C 64.457031 49.675781 64.621094 49.421875 64.804688 49.164062 C 67.890625 44.65625 70.28125 39.707031 70.28125 39.707031 C 70.28125 39.707031 70.5 41.222656 71.25 43.742188 C 71.613281 45.019531 72.363281 46.410156 73.019531 47.757812 C 70.117188 50.113281 68.328125 52.851562 67.6875 54.640625 C 66.539062 57.964844 67.433594 59.460938 69.132812 59.808594 C 69.898438 59.972656 70.992188 59.605469 71.796875 59.261719 C 72.820312 58.929688 74.023438 58.367188 75.171875 57.527344 C 77.125 56.082031 79.007812 54.074219 78.898438 51.355469 C 78.84375 50.113281 78.515625 48.890625 78.058594 47.703125 C 80.523438 46.683594 83.699219 46.117188 87.75 46.589844 C 96.441406 47.613281 98.15625 53.035156 97.828125 55.316406 C 97.5 57.597656 95.671875 58.839844 95.070312 59.222656 C 94.46875 59.605469 94.269531 59.734375 94.324219 60.007812 C 94.394531 60.410156 94.6875 60.390625 95.199219 60.320312 C 95.910156 60.191406 99.761719 58.476562 99.925781 54.277344 C 100.199219 48.910156 95.089844 43.050781 86.054688 43.105469 Z M 19.023438 65.703125 C 16.136719 68.84375 12.121094 70.03125 10.386719 69.027344 C 8.523438 67.949219 9.253906 63.3125 12.796875 59.988281 C 14.949219 57.964844 17.726562 56.082031 19.570312 54.933594 C 19.988281 54.679688 20.609375 54.3125 21.359375 53.855469 C 21.484375 53.785156 21.558594 53.746094 21.558594 53.746094 C 21.703125 53.65625 21.851562 53.5625 21.996094 53.472656 C 23.292969 58.21875 22.050781 62.398438 19.023438 65.703125 Z M 40.015625 51.429688 C 39.011719 53.875 36.910156 60.136719 35.632812 59.789062 C 34.539062 59.496094 33.863281 54.75 35.414062 50.058594 C 36.199219 47.703125 37.859375 44.894531 38.828125 43.796875 C 40.398438 42.046875 42.132812 41.460938 42.550781 42.171875 C 43.082031 43.105469 40.636719 49.894531 40.015625 51.429688 Z M 57.339844 59.714844 C 56.917969 59.933594 56.515625 60.082031 56.335938 59.972656 C 56.207031 59.898438 56.515625 59.605469 56.515625 59.605469 C 56.515625 59.605469 58.6875 57.269531 59.546875 56.210938 C 60.039062 55.589844 60.625 54.859375 61.246094 54.039062 C 61.246094 54.113281 61.246094 54.203125 61.246094 54.277344 C 61.246094 57.070312 58.542969 58.949219 57.339844 59.714844 Z M 70.699219 56.667969 C 70.390625 56.449219 70.445312 55.71875 71.484375 53.4375 C 71.886719 52.542969 72.835938 51.046875 74.460938 49.601562 C 74.644531 50.1875 74.773438 50.753906 74.753906 51.28125 C 74.734375 54.804688 72.214844 56.121094 70.699219 56.667969 Z M 70.699219 56.667969 "/>
</g>
</svg>
